<svg xmlns="http://www.w3.org/2000/svg" viewBox="0 0 475 475"><defs><style>.cls-1{fill:#ffcfaf;}.cls-2{fill:#4d4d4d;}</style></defs><title>birds</title><g id="Layer_2" data-name="Layer 2"><g id="Layer_1-2" data-name="Layer 1"><circle id="bg" class="cls-1" cx="237.5" cy="237.5" r="237.5"/><path id="bird" class="cls-2" d="M189.28,358.91s68.3,48.55,134.13-5.76,42-84.75,52.66-109.44,9.62-50.71,44.44-56.78l26.31-4.59a2,2,0,0,0,.45-3.72c-8.65-3.82-23.68-11.46-26.76-19.48-3.42-8.91-22.13-34.75-48.1-33.93s-50.65,10.7-74.51,43.62c0,0-12.34-28-34.56-36.21s-69.12-23.86-88-40.32a323.16,323.16,0,0,1-33.74-34.56s-7.41-13.17-10.7,0-18.92,60.07-18.92,60.07l-37-23s-8.23-4.94-7.41,14S64.66,159.56,84,205s52.66,71.59,87.22,84.76c0,0-92.95,70.87-100.49,81.6s3.1,21.85,12.15,21c0,0,6.29,19.39,21.92,13.63,0,0,4,18.49,22.93,10.26,0,0,11.73,14.62,25.06,1,0,0,17,8.52,22.22-8C180,393.31,162.12,384.42,189.28,358.91Z"/></g></g></svg>