<svg xmlns="http://www.w3.org/2000/svg" viewBox="0 0 475 475"><defs><style>.cls-1{fill:#ffcfaf;}.cls-2{fill:#4d4d4d;}.cls-3{fill:none;stroke:#4d4d4d;stroke-linecap:round;stroke-linejoin:round;stroke-width:15px;}</style></defs><title>cricket</title><g id="Layer_2" data-name="Layer 2"><g id="cricket"><g id="cricket-2" data-name="cricket"><circle id="bg" class="cls-1" cx="237.5" cy="237.5" r="237.5"/><path class="cls-2" d="M102.46,213.75A32.51,32.51,0,0,0,88,212.15c-7.68,1-27.38,7.06-31.47,19.31s-9.08,24.76-1.73,51.06S73,314.73,79.21,319.46s17.52,2.89,21,.62,8.32-5.7,11.78-10.38l68.75,10.84s14.6,12.16,30.35,11.66,21.34-9.39,21.34-9.39,45.49-.16,57.83-1.34,69.63-9,95.38-19.05,23.55-11.54,25.68-15-1.81-8.36-6.14-12.18L395.93,267l43.62-1.87s3.64-.1,5.05-3.22a3.35,3.35,0,0,0-1.26-4.55s-23.66-13.21-31.09-16.73-38.92-16.73-44.12-18.56-37.33-13-61.28-17.08-50.15-7.53-64.79-7.94a490.6,490.6,0,0,0-69.54,2.59C140.35,203.09,102.46,213.75,102.46,213.75Z"/><path class="cls-3" d="M317.62,173.37,378,335.45s1.87,13.13,19.88,13.13h28.88"/><path class="cls-2" d="M199.49,330.52s-18.74-6.33-20.63-13.45.94-6.37,6.17-12.31l118.77-135s5.06-5.29,11.81-4.42,10.92,7.81,11.12,13.17-1.46,7.69-11.94,23.75-37.17,56.6-37.17,56.6l-40.51,59.4s-5.3,7.77-12.65,10.87S207.76,333.46,199.49,330.52Z"/><path class="cls-3" d="M81.59,212.93s-10-19.27-9.27-34.65-.58-31.5,9.27-48.38"/><path class="cls-3" d="M62.56,106.27s-15.48,31.88-11.49,52.51,6,29.63,25.86,56.26"/><path class="cls-3" d="M135.43,303.1l-20,36.85s-2.25,9.85-15.75,9.57-30.1,0-30.1,0"/><path class="cls-3" d="M155.4,303.1v34.6s1.69,12.11-8.44,11.82-12.66,0-12.66,0"/></g></g></g></svg>