<svg xmlns="http://www.w3.org/2000/svg" viewBox="0 0 475 475"><defs><style>.cls-1{fill:#ffcfaf;}.cls-2{fill:#4d4d4d;}</style></defs><title>cricket</title><g id="Layer_2" data-name="Layer 2"><g id="cricket"><g id="bg"><circle class="cls-1" cx="237.5" cy="237.5" r="237.5"/></g><g id="cricket-2" data-name="cricket"><path class="cls-2" d="M102.46,213.75A32.51,32.51,0,0,0,88,212.15c-7.68,1-27.38,7.06-31.47,19.31s-9.08,24.76-1.73,51.06S73,314.73,79.21,319.46s17.52,2.89,21,.62,8.32-5.7,11.78-10.38l68.75,10.84s14.6,12.16,30.35,11.66,21.34-9.39,21.34-9.39,45.49-.16,57.83-1.34,69.63-9,95.38-19.05,23.55-11.54,25.68-15-1.81-8.36-6.14-12.18L395.93,267l43.62-1.87s3.64-.1,5.05-3.22a3.35,3.35,0,0,0-1.26-4.55s-23.66-13.21-31.09-16.73-38.92-16.73-44.12-18.56-37.33-13-61.28-17.08-50.15-7.53-64.79-7.94a490.6,490.6,0,0,0-69.54,2.59C140.35,203.09,102.46,213.75,102.46,213.75Z"/><path class="cls-2" d="M426.78,356.08H397.9c-18.53,0-25.7-11.69-27.14-18.63L310.6,176a7.5,7.5,0,1,1,14-5.24l60.4,162.08a5.07,5.07,0,0,1,.39,1.48c.3,1.35,2.19,6.77,12.46,6.77h28.88a7.5,7.5,0,0,1,0,15Z"/><path class="cls-2" d="M199.49,330.52s-18.74-6.33-20.63-13.45.94-6.37,6.17-12.31l118.77-135s5.06-5.29,11.81-4.42,10.92,7.81,11.12,13.17-1.46,7.69-11.94,23.75-37.17,56.6-37.17,56.6l-40.51,59.4s-5.3,7.77-12.65,10.87S207.76,333.46,199.49,330.52Z"/><path class="cls-2" d="M81.6,220.43a7.5,7.5,0,0,1-6.66-4c-.45-.86-11-21.26-10.12-38.47.12-2.35.18-4.7.25-7.19.37-13.47.78-28.74,10.05-44.61a7.5,7.5,0,1,1,12.95,7.56c-7.33,12.55-7.66,24.65-8,37.46-.07,2.46-.14,5-.26,7.51-.54,10.95,5.91,26,8.44,30.82a7.5,7.5,0,0,1-6.65,11Z"/><path class="cls-2" d="M76.94,222.54a7.47,7.47,0,0,1-6-3c-20.45-27.47-23-37.44-27.21-59.32C39.29,137.38,55.14,104.38,55.82,103a7.5,7.5,0,0,1,13.49,6.55c-4,8.27-13.75,33-10.88,47.81,3.75,19.38,5.3,27.4,24.52,53.22a7.49,7.49,0,0,1-6,12Z"/><path class="cls-2" d="M69.59,357a7.5,7.5,0,0,1-.12-15c.16,0,16.89-.28,30.38,0,6.27.15,7.92-2.76,8.31-3.85a4.61,4.61,0,0,1,.7-1.79l20-36.86A7.5,7.5,0,1,1,142,306.67l-19.59,36.15c-1.85,5.63-8.45,14.52-22.89,14.19-13.2-.27-29.65,0-29.81,0Z"/><path class="cls-2" d="M134.29,357a7.5,7.5,0,0,1-.85-14.95c.72-.09,3.83-.33,13.73-.05l.49,0a8.57,8.57,0,0,0,.31-3.27,7.27,7.27,0,0,1-.07-1V303.1a7.5,7.5,0,0,1,15,0v34.17c.25,2.47.52,9.72-4.15,14.93a14.78,14.78,0,0,1-12,4.82c-8.76-.25-11.45,0-11.69,0S134.55,357,134.29,357Z"/></g></g></g></svg>