<svg xmlns="http://www.w3.org/2000/svg" viewBox="0 0 500 500"><defs><style>.cls-1{fill:#d3d3d3;opacity:0.25;}.cls-2{fill:#603813;}.cls-3{fill:#f7931e;}.cls-4{fill:#ffdc1f;}</style></defs><title>Artboard 1</title><g id="campFire"><circle class="cls-1" cx="250" cy="250" r="237.5"/><polygon id="wood" class="cls-2" points="249.88 363.26 190.51 415.09 110.4 415.09 197.11 333.1 213.13 318.96 250.98 336.87 286.64 318.96 383.24 415.56 302.27 415.56 249.88 363.26"/><path id="fireBig" class="cls-3" d="M158.47,243.57S140.56,343.47,251,345.35c80.16,1.37,98.4-61.4,98.41-96.05,0-67.93-25.55-94.22-50.81-118.2-31.7-30.07-45-34.55-45-34.55s-3.89-3.14-6.8,0-55,70.37-56.94,74.14-5.65,5.65-2.51,8.79,40.84,47.44,40.84,51.05,1.25,9.9-11.94,11.15-49.64,0-53.41-.62S159,239.29,158.47,243.57Z"/><path id="Embers" class="cls-3" d="M228.47,61.75s-3.2-4.41-5.76-2.28c-1.85,1.54,0,4.46,1.25,5.87,2.45,2.75,4,3.31,5.41,3.78a6,6,0,0,0,2.25.5s.2,0,.16-.13-1.3-4-1.39-4.15-.08-.34-.26-.41a28.75,28.75,0,0,1-2.76-1.26c-.13-.14-.39-.37-.14-.69a7.89,7.89,0,0,1,1.23-1C228.57,61.89,228.61,61.93,228.47,61.75Z"/><path id="Embers-2" data-name="Embers" class="cls-3" d="M248.39,72.49s3.2-4.41,5.75-2.28c1.86,1.55,0,4.46-1.24,5.87-2.45,2.76-4,3.31-5.41,3.78a6.33,6.33,0,0,1-2.26.51s-.2,0-.15-.14,1.3-4,1.39-4.15.08-.34.26-.41,2.63-1.11,2.76-1.25.39-.38.13-.69a7.51,7.51,0,0,0-1.22-1C248.29,72.63,248.25,72.68,248.39,72.49Z"/><path id="fireSmall" class="cls-4" d="M218.42,290.77s-6.6,36.81,34.08,37.5c29.54.51,36.26-22.62,36.26-35.39,0-25-9.41-34.72-18.72-43.55-11.68-11.08-16.56-12.73-16.56-12.73s-1.44-1.16-2.51,0-20.28,25.93-21,27.32-2.08,2.08-.92,3.24,15,17.47,15,18.81.47,3.64-4.4,4.1a171.29,171.29,0,0,1-19.67-.23C218.65,289.61,218.62,289.19,218.42,290.77Z"/></g></svg>