<svg xmlns="http://www.w3.org/2000/svg" viewBox="0 0 475 475"><defs><style>.cls-1{fill:#ffcfaf;}.cls-2{fill:#603813;}.cls-3{fill:#f7931e;}.cls-4{fill:#ffdc1f;}</style></defs><title>fire</title><g id="Layer_2" data-name="Layer 2"><g id="campFire"><circle class="cls-1" cx="237.5" cy="237.5" r="237.5"/><polygon id="wood" class="cls-2" points="237.38 350.76 178.01 402.59 97.9 402.59 184.61 320.6 200.63 306.46 238.48 324.37 274.14 306.46 370.74 403.06 289.77 403.06 237.38 350.76"/><path id="fireBig" class="cls-3" d="M146,231.07S128.06,331,238.48,332.85c80.16,1.37,98.4-61.4,98.41-96.05,0-67.93-25.55-94.22-50.81-118.2-31.7-30.07-45-34.55-45-34.55s-3.89-3.14-6.8,0-55,70.37-56.94,74.14-5.65,5.65-2.51,8.79,40.84,47.44,40.84,51.05,1.25,9.9-11.94,11.15-49.64,0-53.41-.62S146.52,226.79,146,231.07Z"/><path id="Embers" class="cls-3" d="M216,49.25s-3.2-4.41-5.76-2.28c-1.85,1.54,0,4.46,1.25,5.87,2.45,2.75,4,3.31,5.41,3.78a6,6,0,0,0,2.25.5s.2.05.16-.13-1.3-4-1.39-4.15-.08-.34-.26-.41a28.75,28.75,0,0,1-2.76-1.26c-.13-.14-.39-.37-.14-.69a7.89,7.89,0,0,1,1.23-1C216.07,49.39,216.11,49.43,216,49.25Z"/><path id="Embers-2" data-name="Embers" class="cls-3" d="M235.89,60s3.2-4.41,5.75-2.28c1.86,1.55,0,4.46-1.24,5.87-2.45,2.76-4,3.31-5.41,3.78a6.33,6.33,0,0,1-2.26.51s-.2,0-.15-.14,1.3-4,1.39-4.15.08-.34.26-.41,2.63-1.11,2.76-1.25.39-.38.13-.69a7.51,7.51,0,0,0-1.22-1C235.79,60.13,235.75,60.18,235.89,60Z"/><path id="fireSmall" class="cls-4" d="M205.92,278.27s-6.6,36.81,34.08,37.5c29.54.51,36.26-22.62,36.26-35.39,0-25-9.41-34.72-18.72-43.55C245.86,225.75,241,224.1,241,224.1s-1.44-1.16-2.51,0-20.28,25.93-21,27.32-2.08,2.08-.92,3.24,15,17.47,15,18.81.47,3.64-4.4,4.1a171.29,171.29,0,0,1-19.67-.23C206.15,277.11,206.12,276.69,205.92,278.27Z"/></g></g></svg>