<svg xmlns="http://www.w3.org/2000/svg" viewBox="0 0 500 500"><defs><style>.cls-1{fill:#d3d3d3;opacity:0.25;}.cls-2{fill:gray;}.cls-3{fill:#ffdc1f;}.cls-4{fill:#29abe2;}</style></defs><title>Artboard 4</title><g id="thunder"><circle class="cls-1" cx="250" cy="250" r="237.5"/><path class="cls-2" d="M107.22,282.4H402.53s52.05-57.26,18.2-113.68C391.57,120.12,352.9,138,352.9,138S365,43.4,246.12,43.4s-116.38,88.84-116.38,88.84-61.83,15-61.91,90.1C67.76,283.63,107.22,282.4,107.22,282.4Z"/><path class="cls-3" d="M242.24,218.58h49a1.28,1.28,0,0,1,1.1,1.93L254,285.41a1.32,1.32,0,0,0,1.14,2h29.71a1.48,1.48,0,0,1,1.33,2.13L253.92,355.2a1.57,1.57,0,0,0,1.42,2.26l19.75-.13a1.54,1.54,0,0,1,1.37,2.28L218.77,466.24c0,.17-.05.34-.08.5-.85,3.54-6.23,2.55-6-1.09a8.44,8.44,0,0,1,.14-1.22l15-65.3a1.32,1.32,0,0,0-1.29-1.61h-12a1.71,1.71,0,0,1-1.62-2.26l24-70.85a1.49,1.49,0,0,0-1.41-2H200.76a1.59,1.59,0,0,1-1.48-2.2l41.14-100.43A2,2,0,0,1,242.24,218.58Z"/><path class="cls-4" d="M151,305.73a1,1,0,0,0-1.95,0c-3.76,9.94-17.42,47.57-19.09,75.1-1.63,26.69,40.12,32,40-.28C170,355.7,155,316,151,305.73Z"/><path class="cls-4" d="M336.2,305.73a1,1,0,0,0-1.94,0c-3.77,9.94-17.42,47.57-19.1,75.1-1.62,26.69,40.13,32,40-.28C355.14,355.7,340.22,316,336.2,305.73Z"/></g></svg>