<svg xmlns="http://www.w3.org/2000/svg" viewBox="0 0 475 475"><defs><style>.cls-1{fill:#ffcfaf;}.cls-2{fill:gray;}.cls-3{fill:#ffdc1f;}.cls-4{fill:#29abe2;}</style></defs><title>thunder</title><g id="Layer_2" data-name="Layer 2"><g id="thunder"><circle id="bg" class="cls-1" cx="237.5" cy="237.5" r="237.5"/><g id="cloud"><path class="cls-2" d="M94.72,269.9H390s52.05-57.26,18.2-113.68c-29.16-48.6-67.83-30.73-67.83-30.73S352.49,30.9,233.62,30.9s-116.38,88.84-116.38,88.84-61.83,15-61.91,90.1C55.26,271.13,94.72,269.9,94.72,269.9Z"/></g><g id="bolt"><path class="cls-3" d="M229.74,206.08h49a1.28,1.28,0,0,1,1.1,1.93l-38.35,64.9a1.32,1.32,0,0,0,1.14,2h29.71a1.48,1.48,0,0,1,1.33,2.13L241.42,342.7a1.57,1.57,0,0,0,1.42,2.26l19.75-.13a1.54,1.54,0,0,1,1.37,2.28L206.27,453.74c0,.17-.05.34-.08.5-.85,3.54-6.23,2.55-6-1.09a8.44,8.44,0,0,1,.14-1.22l15-65.3A1.32,1.32,0,0,0,214,385H202a1.71,1.71,0,0,1-1.62-2.26l24-70.85a1.49,1.49,0,0,0-1.41-2H188.26a1.59,1.59,0,0,1-1.48-2.2l41.14-100.43A2,2,0,0,1,229.74,206.08Z"/></g><g id="droplet_left"><path class="cls-4" d="M138.51,293.23a1,1,0,0,0-1.95,0c-3.76,9.94-17.42,47.57-19.09,75.1-1.63,26.69,40.12,32,40-.28C157.45,343.2,142.53,303.48,138.51,293.23Z"/></g><g id="droplet_right"><path class="cls-4" d="M323.7,293.23a1,1,0,0,0-1.94,0c-3.77,9.94-17.42,47.57-19.1,75.1-1.62,26.69,40.13,32,40-.28C342.64,343.2,327.72,303.48,323.7,293.23Z"/></g></g></g></svg>