<svg xmlns="http://www.w3.org/2000/svg" xmlns:xlink="http://www.w3.org/1999/xlink" viewBox="0 0 500 500"><defs><style>.cls-1,.cls-8{fill:none;}.cls-2{fill:#d3d3d3;opacity:0.25;}.cls-3{clip-path:url(#clip-path);}.cls-4{fill:#29abe2;}.cls-5{fill:#65c8d0;}.cls-6{fill:#0071bc;}.cls-7{clip-path:url(#clip-path-2);}.cls-8{stroke:#000;stroke-miterlimit:10;stroke-width:6px;}</style><clipPath id="clip-path"><circle class="cls-1" cx="250" cy="250" r="237.5"/></clipPath><clipPath id="clip-path-2"><circle class="cls-1" cx="770" cy="250" r="237.5"/></clipPath></defs><title>Artboard 5</title><g id="sea"><circle class="cls-2" cx="250" cy="250" r="237.5"/><g class="cls-3"><path class="cls-4" d="M24.84,325.76c9.93,25,56.55,47.3,108.24,47.32s91.74-41,138.38-41.91S359.72,372,407.62,371s65.69-39.89,65.69-39.89c15.95-34.83,13.57-96.47,13.57-96.47-1.32,24.84-63.74,62-115.64,47.54-53.95-15.05-92.09-60.88-140.6-39.8-44.61,19.38-92,40.86-141.92,39.78S12.5,242.33,12.5,242.33,15.4,302,24.84,325.76Z"/><path class="cls-5" d="M12.5,242.33c15,19.95,33.63,44,108.58,41.86,51.67-1.47,98-45,137.26-47.27,40.34-2.33,90.24,62.69,164.9,45.92,49.68-11.16,62.66-43.37,62.66-43.37,16-34.83-15.4-93.8-15.4-93.8-1.31,24.84-57.7,51.13-104.14,40.33-53.77-12.5-64.89-41.14-134.41-37.67-40.55,2-57.83,36.59-146.39,35.51-34.56-.42-52.74-30.09-52.74-30.09S-2.85,221.93,12.5,242.33Z"/><path class="cls-6" d="M17.88,320.28s39.8,103,127.72,143.1,178.28,23.85,236.09-15.71c31.56-21.6,50.56-43.08,65.26-64.9,9.6-14.25,21.38-34.7,26.36-51.71,0,0-13.35,19.46-28.47,29.54s-46.08,14.4-72,4.32-78.62-33.93-90-33.84c-6.56.05-18.76-1.52-39.6,4.8C228,340.51,208.2,350.94,182,362c-39.6,16.8-86.46,8.42-116.88-4.32C42.19,348.1,18.73,322.63,17.88,320.28Z"/></g></g><g id="wind"><g class="cls-7"><path class="cls-8" d="M467.85,131.88s166.53.19,239,0,83.12-65.06,40.8-78"/><line class="cls-8" x1="467.85" y1="160.25" x2="694.94" y2="160.25"/><path class="cls-8" d="M467.85,196.58H627.46c76.56,0,20.77,58.39,0,38.93"/></g></g></svg>