<svg xmlns="http://www.w3.org/2000/svg" xmlns:xlink="http://www.w3.org/1999/xlink" viewBox="0 0 481.76 475"><defs><style>.cls-1{fill:none;}.cls-2{fill:#ffcfaf;}.cls-3{clip-path:url(#clip-path);}.cls-4{fill:#29abe2;}.cls-5{fill:#65c8d0;}.cls-6{fill:#0071bc;}</style><clipPath id="clip-path"><circle class="cls-1" cx="241.34" cy="237.5" r="237.5"/></clipPath></defs><title>water</title><g id="Layer_2" data-name="Layer 2"><g id="sea"><circle class="cls-2" cx="241.34" cy="237.5" r="237.5"/><g class="cls-3"><path class="cls-4" d="M16.18,313.26c9.93,25,56.55,47.3,108.24,47.32s91.73-41,138.38-41.91S351.05,359.53,399,358.45s65.68-39.89,65.68-39.89c16-34.83,13.58-96.47,13.58-96.47-1.32,24.84-63.74,62-115.64,47.54-53.95-15-92.1-60.88-140.61-39.8-44.6,19.38-92,40.86-141.92,39.78S3.84,229.83,3.84,229.83,6.74,289.54,16.18,313.26Z"/><path class="cls-5" d="M3.84,229.83c15,19.95,33.63,44,108.58,41.86,51.67-1.47,97.94-45,137.26-47.27,40.34-2.33,90.24,62.69,164.9,45.92C464.26,259.18,477.24,227,477.24,227c15.95-34.83-15.4-93.8-15.4-93.8C460.52,158,404.14,184.3,357.7,173.5c-53.77-12.5-64.89-41.14-134.41-37.67-40.55,2-57.83,36.59-146.39,35.51-34.56-.42-52.74-30.09-52.74-30.09S-11.52,209.43,3.84,229.83Z"/><path class="cls-6" d="M9.22,307.78s39.8,103,127.72,143.1S315.22,474.73,373,435.17c31.56-21.6,50.56-43.08,65.26-64.9,9.6-14.25,21.37-34.7,26.35-51.71,0,0-13.34,19.46-28.46,29.54s-46.08,14.4-72,4.32-78.63-33.93-90-33.84c-6.57.05-18.76-1.52-39.6,4.8-15.28,4.63-35,15.06-61.2,26.16-39.6,16.8-86.46,8.42-116.88-4.32C33.53,335.6,10.07,310.13,9.22,307.78Z"/></g></g></g></svg>