<svg xmlns="http://www.w3.org/2000/svg" xmlns:xlink="http://www.w3.org/1999/xlink" viewBox="0 0 539.65 475"><defs><style>.cls-1{fill:none;}.cls-2{fill:#ffcfaf;}.cls-3{fill:#008f38;}.cls-4{clip-path:url(#clip-path);}</style><clipPath id="clip-path"><circle class="cls-1" cx="302.15" cy="237.5" r="237.5"/></clipPath></defs><title>wind</title><g id="Layer_2" data-name="Layer 2"><g id="wind"><circle id="bg" class="cls-2" cx="302.15" cy="237.5" r="237.5"/><g id="windBlowing"><path class="cls-3" d="M253,387.81c-43.5-.24-59.09-18.17-51.9-140.15,3.72-63.09,47.28-113.27,124.45-124.57,65-9.52,86.8-1,110,28.55,9.52,12.11,2.7,70.94-47.58,75.26-42.09,3.62-78.72-10.38-77.82,28.55C310.79,281.4,323.12,388.19,253,387.81Z"/><path class="cls-3" d="M342.6,405.7c-18.88-.11-25.64-8.26-22.52-63.72,1.61-28.68,20.42-52.19,54-56.63,21.95-2.91,30.95-2.3,39.23,8,4.31,5.37,9.67,37.2-12.15,39.16-18.27,1.65-28.56,12.62-28.17,30.32C373.25,374.66,373,405.87,342.6,405.7Z"/><path d="M253.91,433.2a3,3,0,0,1-3-2.73c-7.92-87.16-6.95-150.74,2.9-189,7.58-29.44,18.1-32.81,19.27-33.09l1.43,5.82.13,0c-.37.12-36,14.72-17.75,215.72a3,3,0,0,1-2.72,3.26Z"/><path d="M346.49,438.42a3,3,0,0,1-3-2.87c-2.66-63.38-.52-101.68,5.87-105.07a3,3,0,0,1,3.45,4.85c-.72,1.17-6.93,14-3.33,100a3,3,0,0,1-2.87,3.12Zm5.7-102.64h0Zm0,0h0Zm0,0h0Zm0,0Z"/><g class="cls-4"><path d="M145,122.46c-70.28,0-143.92-.08-145-.08v-6c1.66,0,167.35.18,239,0,39.06-.1,59.42-19.54,62.28-38.76,2.29-15.43-6.48-28.55-22.35-33.41l1.76-5.74c18.57,5.7,29.23,21.78,26.52,40-3.23,21.76-25.57,43.77-68.2,43.88C215,122.44,180.44,122.46,145,122.46Z"/><rect y="144.75" width="227.09" height="6"/><path d="M170.23,230a18.1,18.1,0,0,1-12.67-4.78l4.11-4.38c5.71,5.36,14.62,3.09,21.06-.81,9-5.45,14.43-14.29,12.67-20.58-2.19-7.85-15.24-12.35-35.79-12.35H0v-6H159.61c30.49,0,39.43,9.1,41.57,16.73,3,10.59-5.87,21.59-15.34,27.33A30.49,30.49,0,0,1,170.23,230Z"/></g></g></g></g></svg>