<svg xmlns="http://www.w3.org/2000/svg" xmlns:xlink="http://www.w3.org/1999/xlink" viewBox="0 0 500 500"><defs><style>.cls-1,.cls-4,.cls-6{fill:none;}.cls-2{fill:#d3d3d3;opacity:0.25;}.cls-3{fill:#008f38;}.cls-4,.cls-6{stroke:#000;stroke-width:6px;}.cls-4{stroke-linecap:round;stroke-linejoin:round;}.cls-5{clip-path:url(#clip-path);}.cls-6{stroke-miterlimit:10;}</style><clipPath id="clip-path"><circle class="cls-1" cx="250" cy="250" r="237.5"/></clipPath></defs><title>Artboard 6</title><g id="wind"><circle class="cls-2" cx="250" cy="250" r="237.5"/><path class="cls-3" d="M200.89,400.31c-43.5-.24-59.09-18.17-51.9-140.15,3.72-63.09,47.28-113.27,124.45-124.57,65-9.52,86.8-1,110,28.55,9.52,12.11,2.7,70.94-47.58,75.26C293.76,243,257.13,229,258,268,258.64,293.9,271,400.69,200.89,400.31Z"/><path class="cls-3" d="M290.45,418.2c-18.88-.11-25.64-8.26-22.52-63.72,1.61-28.68,20.42-52.19,54-56.63,21.95-2.91,30.95-2.3,39.23,8,4.31,5.37,9.67,37.2-12.15,39.16-18.27,1.65-28.56,12.62-28.17,30.32C321.1,387.16,320.85,418.37,290.45,418.2Z"/><path class="cls-4" d="M221.66,223.83s-38.93,9.52-19.9,218.87"/><path class="cls-4" d="M298.63,345.63s-8.38,4.45-4.29,102.29"/><g class="cls-5"><path class="cls-6" d="M-52.15,131.88s166.53.19,239,0,83.12-65.06,40.8-78"/><line class="cls-6" x1="-52.15" y1="160.25" x2="174.94" y2="160.25"/><path class="cls-6" d="M-52.15,196.58H107.46c76.56,0,20.77,58.39,0,38.93"/></g></g></svg>