<svg xmlns="http://www.w3.org/2000/svg" xmlns:xlink="http://www.w3.org/1999/xlink" viewBox="0 0 539.65 475"><defs><style>.cls-1,.cls-4,.cls-6{fill:none;}.cls-2{fill:#ffcfaf;}.cls-3{fill:#008f38;}.cls-4,.cls-6{stroke:#000;stroke-width:6px;}.cls-4{stroke-linecap:round;stroke-linejoin:round;}.cls-5{clip-path:url(#clip-path);}.cls-6{stroke-miterlimit:10;}</style><clipPath id="clip-path"><circle class="cls-1" cx="302.15" cy="237.5" r="237.5"/></clipPath></defs><title>wind</title><g id="Layer_2" data-name="Layer 2"><g id="wind"><circle class="cls-2" cx="302.15" cy="237.5" r="237.5"/><path class="cls-3" d="M253,387.81c-43.5-.24-59.09-18.17-51.9-140.15,3.72-63.09,47.28-113.27,124.45-124.57,65-9.52,86.8-1,110,28.55,9.52,12.11,2.7,70.94-47.58,75.26-42.09,3.62-78.72-10.38-77.82,28.55C310.79,281.4,323.12,388.19,253,387.81Z"/><path class="cls-3" d="M342.6,405.7c-18.88-.11-25.64-8.26-22.52-63.72,1.61-28.68,20.42-52.19,54-56.63,21.95-2.91,30.95-2.3,39.23,8,4.31,5.37,9.67,37.2-12.15,39.16-18.27,1.65-28.56,12.62-28.17,30.32C373.25,374.66,373,405.87,342.6,405.7Z"/><path class="cls-4" d="M273.81,211.33s-38.93,9.52-19.9,218.87"/><path class="cls-4" d="M350.78,333.13s-8.38,4.45-4.29,102.29"/><g class="cls-5"><path class="cls-6" d="M0,119.38s166.53.19,239,0,83.12-65.06,40.8-78"/><line class="cls-6" y1="147.75" x2="227.09" y2="147.75"/><path class="cls-6" d="M0,184.08H159.61c76.56,0,20.77,58.39,0,38.93"/></g></g></g></svg>